<!-- Generator: Adobe Illustrator 16.0.0, SVG Export Plug-In . SVG Version: 6.00 Build 0)  -->
<svg id="Layer_5" xmlns:rdf="http://www.w3.org/1999/02/22-rdf-syntax-ns#" xmlns="http://www.w3.org/2000/svg" enable-background="new 0 0 100 100" xml:space="preserve" viewBox="0 0 40 25" version="1.1" y="0px" x="0px" xmlns:cc="http://creativecommons.org/ns#" xmlns:dc="http://purl.org/dc/elements/1.1/"><metadata id="metadata9"><rdf:RDF><cc:Work rdf:about=""><dc:format>image/svg+xml</dc:format><dc:type rdf:resource="http://purl.org/dc/dcmitype/StillImage"/><dc:title/></cc:Work></rdf:RDF></metadata>
<g id="split2-view-mode" transform="matrix(0.54758807,0,0,0.53157559,-7.3663677,-14.051669)" class="view-mode-button"><path id="path3" d="M83,26.434h-66c-1.93,0-3.5,1.57-3.5,3.5v40.03c0,1.93,1.57,3.5,3.5,3.5h66c1.93,0,3.5-1.57,3.5-3.5v-40.03c0-1.93-1.57-3.5-3.5-3.5zm0.5,43.53c0,0.276-0.224,0.5-0.5,0.5h-66c-0.276,0-0.5-0.224-0.5-0.5v-40.03c0-0.276,0.224-0.5,0.5-0.5h66c0.276,0,0.5,0.224,0.5,0.5v40.03z"/><path id="path3-2" d="m82.952,26.533h-66c-1.93,0-3.5,0.80409-3.5,1.7926v20.502c0,0.98846,1.57,1.7926,3.5,1.7926h66c1.93,0,3.5-0.80409,3.5-1.7926v-20.503c0-0.98846-1.57-1.7926-3.5-1.7926zm0.5,22.294c0,0.14136-0.224,0.25608-0.5,0.25608h-66c-0.276,0-0.5-0.11472-0.5-0.25608v-20.502c0-0.14136,0.224-0.25608,0.5-0.25608h66c0.276,0,0.5,0.11472,0.5,0.25608v20.502z"/><path id="path3-2-9" d="m82.952,48.895h-66c-1.93,0-3.5,0.80409-3.5,1.7926v20.502c0,0.98846,1.57,1.7926,3.5,1.7926h66c1.93,0,3.5-0.80409,3.5-1.7926v-20.502c0-0.98846-1.57-1.7926-3.5-1.7926zm0.5,22.294c0,0.14136-0.224,0.25608-0.5,0.25608h-66c-0.276,0-0.5-0.11472-0.5-0.25608v-20.501c0-0.14136,0.224-0.25608,0.5-0.25608h66c0.276,0,0.5,0.11472,0.5,0.25608v20.502z"/></g></svg>
